PathFileType	4	(X/Y/Z)	Patient4_TMGait_0pt4_01_left_43.trc.trc
DataRate	CameraRate	NumFrames	NumMarkers	Units	OrigDataRate	OrigDataStartFrame	OrigNumFrames
74.866310160428	74.866310160428	6	33	mm	74.866310160428	1	       141
Frame#	Time	Sacral			L.Shoulder			Chest			R.Shoulder			Neck			R.ASIS			L.ASIS			R.Thigh.Superior			R.Thigh.Lateral			R.Thigh.Inferior			R.Patella			L.Thigh.Superior			L.Thigh.Lateral			L.Thigh.Inferior			L.Patella			L.Shank.Superior			L.Shank.Lateral			L.Shank.Inferior			R.Shank.Superior			R.Shank.Lateral			R.Shank.Inferior			R.Heel			R.Midfoot.Superior			R.Midfoot.Lateral			R.Toe			L.Heel			L.Midfoot.Lateral			L.Midfoot.Superior			L.Toe			L.Elbow			L.Wrist			R.Elbow			R.Wrist			
		X1	Y1	Z1	X2	Y2	Z2	X3	Y3	Z3	X4	Y4	Z4	X5	Y5	Z5	X6	Y6	Z6	X7	Y7	Z7	X8	Y8	Z8	X9	Y9	Z9	X10	Y10	Z10	X11	Y11	Z11	X12	Y12	Z12	X13	Y13	Z13	X14	Y14	Z14	X15	Y15	Z15	X16	Y16	Z16	X17	Y17	Z17	X18	Y18	Z18	X19	Y19	Z19	X20	Y20	Z20	X21	Y21	Z21	X22	Y22	Z22	X23	Y23	Z23	X24	Y24	Z24	X25	Y25	Z25	X26	Y26	Z26	X27	Y27	Z27	X28	Y28	Z28	X29	Y29	Z29	X30	Y30	Z30	X31	Y31	Z31	X32	Y32	Z32	X33	Y33	Z33	

1	54.100000000000	865.451579931380	1001.262086711843	532.239129027184	1036.224090857781	1426.464995070803	337.142838768026	1141.110951595062	1368.453120859453	500.581404063400	1056.882669662016	1445.370225529973	672.550498258934	1018.241988053251	1494.285014435423	491.349360737455	1097.576083328075	945.029451333399	648.671520868442	1079.015747371849	962.231650141936	375.254730632913	1139.881279725530	741.577685209808	617.537978686108	1058.734899497338	629.912345934174	673.264872295233	1138.765095111032	580.222962963166	594.437713355063	1138.863165964820	489.657411283509	598.738791090314	1160.901556136276	775.470859577551	395.977813718392	1112.472094403466	654.254734810145	308.811592959716	1217.612795973573	588.957069038498	364.329713525844	1230.131160943216	501.278143866558	353.889075794488	1165.904558640145	433.703673985527	343.627755988857	1025.418056024885	386.667630919805	294.447044665879	1021.848628614584	252.784583667642	341.220476371824	1104.443403592760	401.306313918453	600.799358501652	1025.821145884235	300.606115624855	659.067938555265	1061.110453877721	205.480504508771	592.113652168250	917.179781333227	45.644779358217	556.861728235565	1089.566707753512	96.760122724041	594.361932476539	1000.414789684762	37.705743327120	631.640869674294	1208.918831966187	40.492964474237	620.775596787914	836.099371420886	179.616353300328	379.161589408617	892.434015766672	137.270837573982	296.007512656995	998.453576661752	146.919457793543	315.105423410262	1077.820676933710	37.088790013541	280.838390613406	1034.989735366521	1066.796906262063	238.755638770425	1134.365991093865	825.900404600635	219.849922968604	1075.236046132562	1105.456929215284	816.710116296211	1258.725875139581	921.909146911196	800.211272435458	
2	54.113357142857	863.980092239284	1002.211261238398	533.681385670014	1035.362299792846	1427.199260358644	338.197417454881	1141.206919297530	1368.246794760536	500.695154671020	1058.808671304540	1445.314124880403	673.463150513991	1018.675415200794	1494.698759893104	492.627505579145	1096.459049233145	944.781991714057	648.487852929027	1076.549970592234	962.698783058337	375.033229683380	1136.934860375926	741.203202676341	617.164390966779	1055.187924671621	630.088716790304	673.480794970343	1134.429589290637	579.777392428235	594.389988387037	1133.692315938637	489.471248400502	598.797853004896	1159.134626015351	777.531041308410	395.045525892558	1111.211840243464	655.486413057279	308.755972564779	1217.340026722304	591.676090257326	363.154654391055	1231.336536131394	505.206797013625	352.670813431661	1170.439646337692	436.337316937546	342.028224276337	1032.975238680111	382.055622474044	293.840056870835	1037.801035946215	248.292196928342	338.994017709024	1099.217803550732	401.250797859793	600.982453598063	1020.409691591341	300.652457247120	659.208758062785	1055.679849224380	205.429921508443	592.297259474257	911.476338875374	45.694520162339	556.915676700034	1083.921921497919	96.744272246508	594.490399348541	994.734121765965	37.673298034850	631.730273049470	1203.236913106976	40.398748571434	620.949286817403	858.414432776305	163.990523187288	378.258044382863	915.565296312424	126.485945553405	293.803651285987	1020.437168933551	142.305123487021	311.894036567775	1105.367741156850	38.732569208082	274.960051896609	1026.171504264832	1067.964407480087	239.638412593789	1115.898211003036	824.265871864442	219.953902419584	1083.839660167946	1106.127040257568	817.377255788248	1274.587027600909	932.209448715400	797.864459092090	
3	54.126714285714	862.520835305556	1003.153289833941	535.072179967418	1034.492018662336	1427.925687964347	339.226721994171	1141.298177594167	1368.033809330931	500.776317028798	1060.724047995795	1445.232665434942	674.344164909237	1019.100585439660	1495.097390332257	493.866800296913	1095.366136107802	944.540995174129	648.251608782143	1074.104738231009	963.147969450377	374.777169278266	1133.974255388028	740.808221405883	616.730505520339	1051.631711087470	630.253291443646	673.654203920850	1130.051070029835	579.316262479643	594.277189579631	1128.483689552059	489.288746354508	598.784526517298	1157.270270574464	779.458849969220	394.137547509562	1109.818811393239	656.644404001997	308.655124781584	1216.843109786140	594.230014534426	362.101333500618	1232.339232338770	509.035547304602	351.556171816190	1174.806064141443	438.923324070641	340.529950806636	1040.608439696342	377.387787883672	293.098761077272	1053.775802335364	243.896335108641	336.789699014170	1093.964102252695	401.185862805835	601.110782861750	1015.003139690970	300.678644624994	659.312178376563	1050.258325690701	205.371428734122	592.447456669304	905.806130604812	45.715708028124	556.976827948650	1078.303743133032	96.725631925221	594.604463778021	989.080415818230	37.638520805505	631.816943510346	1197.583380873753	40.315260104771	621.113545190933	880.887562297180	148.542340589957	377.121119634348	938.931419280721	115.867648466573	291.501329052771	1042.524528215376	137.847390143794	308.754563526063	1132.992450726237	40.604453449911	269.397780360832	1017.317919775379	1069.172408194711	240.507747983808	1097.635593419850	822.784930188398	220.043355570795	1092.383376277876	1106.777268195189	817.950497442802	1290.198598077545	942.416096872740	795.442690212130	
4	54.140071428571	861.100712029344	1004.076417089579	536.362128058579	1033.604656573893	1428.634181974504	340.193635260334	1141.379180737970	1367.811894131804	500.782598363058	1062.614741177697	1445.109024701151	675.148045463980	1019.508419079083	1495.466500126674	495.020688006999	1094.327704571351	944.311630285827	647.913581767094	1071.703892750468	963.564017834116	374.450110345339	1130.994099357396	740.374529063138	616.184813428843	1048.056842856217	630.399727317749	673.745349025364	1125.588227902078	578.830480790976	594.044414408596	1123.198153799251	489.116660807806	598.639126506699	1155.234386144894	781.133316012285	393.278638884337	1108.201404258884	657.664284510310	308.463140264622	1215.941410103235	596.464178842150	361.257211692986	1232.947911840330	512.651425264620	350.630643781383	1178.828375558654	441.413792802668	339.212119674857	1048.320640850009	372.675522597045	292.135355051551	1069.678354543023	239.741915380354	334.645815444320	1088.658189643987	401.110382607021	601.139949820564	1009.606461281511	300.674115811440	659.350978233791	1044.854926385385	205.303320959936	592.537445785997	900.203281833720	45.688716665479	557.048984335840	1072.741350117547	96.703903430753	594.694135105021	983.484841580952	37.600566233274	631.899961474051	1191.989094904505	40.254751141870	621.259067355178	903.502301614808	133.579532997585	375.602822403680	962.571475747599	105.665635921420	289.073162137580	1064.651584984285	133.740160763802	305.782577707181	1160.557612976640	42.907071227441	264.478475048633	1008.453736018796	1070.450910019938	241.345337159546	1079.831600661663	821.596888377297	220.096879049584	1100.771355826851	1107.390009933101	818.326146297543	1305.261754053157	952.401753510423	792.862348052970	
5	54.153428571429	859.742880774635	1004.971040982342	537.513931638366	1032.690185379194	1429.316064447267	341.064921011697	1141.445586335075	1367.579481707582	500.673812723117	1064.473252875263	1444.930955781646	675.832588228321	1019.892198885154	1495.794471874921	496.049432587913	1093.362902649626	944.091819301959	647.432355965611	1069.360443726303	963.934484653831	374.021276780339	1127.981203837573	739.884728824326	615.488057370953	1044.439620811072	630.525118321270	673.723515426936	1120.987823856406	578.312003830877	593.650861461921	1117.779956458523	488.960823048209	598.316955885507	1152.964510192551	782.458887375184	392.489918596106	1106.300717547582	658.505438665856	308.132062763360	1214.492893652724	598.260534475058	360.676259658116	1233.008585916981	515.970505001371	349.949565337238	1182.368153769205	443.781315800807	338.130279496997	1056.125257007120	367.949462414232	290.879581585513	1085.435093413551	235.972178455696	332.603627252098	1083.258559264421	401.026353196793	601.037378405390	1004.202014080248	300.632789071168	659.308114883039	1039.456595119426	205.225252676787	592.547474430722	894.676092640399	45.599791387109	557.133132817352	1067.239623015988	96.679569726241	594.753154711855	977.954588727690	37.558515244794	631.979185059554	1186.461137825609	40.228135949263	621.379274288888	926.247493462557	119.392277880704	373.600835883592	986.533166210750	96.110136346487	286.525154936425	1086.778752982620	130.166529765681	303.079882578586	1187.963527581054	45.822956854942	260.520405088185	999.594065545441	1071.824895473115	242.138548134199	1062.655315594544	820.806435822102	220.092418840366	1108.938070294514	1107.953027994691	818.412662075773	1319.557286836974	962.077403212936	790.039140254154	
6	54.166785714286	858.467824532810	1005.829004439611	538.504331907520	1031.739662725668	1429.963851568209	341.811929545004	1141.494417105113	1367.336569103587	500.415293461352	1066.296088949860	1444.693079417831	676.360887531879	1020.247503057131	1496.073146519780	496.922177409825	1092.481962047800	943.874408939439	646.779391721339	1067.079877505408	964.250844542202	373.468611522057	1124.922203003684	739.325567429431	614.618784127037	1040.751359389676	630.630838215874	673.570809364829	1116.198994347558	577.756209771813	593.075532888382	1112.172150625516	488.825815073186	597.794622957381	1150.423172472509	783.375006891318	391.786626306353	1104.100151373214	659.154246879904	307.618443008537	1212.416524628676	599.548087383296	360.370761076032	1232.422372220567	518.939600764726	349.531827698330	1185.332094686005	446.016590793937	337.309602237644	1064.021497205080	363.267655690364	289.295329848080	1100.963825705826	232.719566708478	330.706237198421	1077.720575258388	400.939526743353	600.786642959283	998.760533899005	300.554725418295	659.178857360120	1034.038135211774	205.139394745985	592.467931303543	889.215093097290	45.443659778659	557.227158274674	1061.787413953852	96.653860497869	594.779372854223	972.481121431968	37.511725146536	632.054962716280	1180.991062353683	40.244026713115	621.470715739000	949.063558037859	106.249712326155	371.082525540962	1010.806128752312	87.404556386906	283.905708470327	1108.840649070253	127.283258856013	300.746846504882	1215.091700234179	49.483246664991	257.797129967257	990.762648389412	1073.308519335496	242.879038278344	1046.206561345376	820.473034322886	220.009007075918	1116.838413080804	1108.459824968890	818.139362603503	1332.940757255720	971.383683614182	786.900706111238	
